<?xml version="1.0" standalone="no"?>
<!DOCTYPE svg PUBLIC "-//W3C//DTD SVG 20010904//EN"
 "http://www.w3.org/TR/2001/REC-SVG-20010904/DTD/svg10.dtd">
<svg version="1.0" xmlns="http://www.w3.org/2000/svg"
 width="1136.000000pt" height="1136.000000pt" viewBox="0 0 1136.000000 1136.000000"
 preserveAspectRatio="xMidYMid meet">
<metadata>
Created by potrace 1.11, written by Peter Selinger 2001-2013
</metadata>
<g transform="translate(0.000000,1136.000000) scale(0.100000,-0.100000)"
fill="#000000" stroke="none">
<path d="M5568 11255 c-2 -2 -52 -5 -113 -9 -99 -5 -276 -22 -322 -30 -10 -2
-47 -7 -83 -11 -36 -3 -72 -8 -80 -10 -8 -2 -31 -7 -50 -10 -19 -3 -71 -13
-115 -21 -44 -8 -91 -17 -105 -20 -73 -14 -401 -97 -505 -129 -149 -44 -437
-142 -490 -165 -22 -10 -70 -30 -106 -44 -214 -83 -547 -249 -754 -377 -16
-10 -43 -26 -60 -35 -49 -27 -202 -132 -320 -218 -875 -638 -1548 -1589 -1935
-2736 -71 -210 -171 -609 -196 -780 -3 -19 -7 -46 -9 -60 -11 -60 -32 -212
-41 -295 -3 -33 -7 -71 -9 -85 -23 -176 -23 -818 0 -962 2 -13 6 -54 10 -93
10 -110 15 -158 20 -185 3 -14 7 -43 10 -65 7 -50 33 -201 40 -235 3 -14 8
-41 11 -60 3 -19 15 -75 26 -125 11 -49 21 -98 23 -107 39 -188 173 -607 285
-889 188 -473 463 -958 765 -1345 38 -49 72 -91 75 -94 5 -4 58 -66 155 -180
63 -73 356 -360 441 -431 49 -41 98 -82 109 -93 87 -80 416 -315 615 -439 260
-161 635 -352 890 -452 80 -31 154 -61 165 -66 21 -9 116 -40 275 -90 109 -35
223 -66 305 -83 11 -2 43 -10 70 -16 28 -6 61 -14 75 -16 14 -3 57 -11 95 -19
78 -16 177 -32 245 -40 25 -3 68 -8 95 -11 167 -21 293 -28 545 -28 320 0 560
19 850 69 47 8 99 17 115 20 157 27 385 84 645 161 730 215 1329 528 1890 988
136 112 463 430 578 563 203 234 440 560 575 789 17 30 37 63 42 72 88 146
126 217 234 437 185 375 314 719 415 1100 30 114 76 323 90 410 3 17 8 45 11
63 11 67 23 151 30 212 3 25 8 63 11 85 32 263 38 886 10 1045 -3 14 -7 59
-11 100 -3 41 -10 104 -15 140 -5 36 -12 88 -16 115 -3 28 -8 59 -10 70 -2 11
-9 47 -15 80 -87 486 -258 1060 -418 1408 -17 37 -31 69 -31 71 0 14 -154 319
-219 434 -169 299 -375 597 -568 818 -28 33 -69 82 -93 109 -72 85 -369 376
-484 474 -205 174 -521 406 -696 511 -14 8 -72 43 -130 78 -153 92 -559 290
-751 366 -260 103 -566 200 -757 242 -13 2 -75 16 -138 29 -63 14 -147 30
-186 36 -40 6 -82 12 -93 14 -11 2 -42 6 -70 9 -27 4 -61 8 -75 11 -14 2 -59
7 -100 10 -41 3 -97 8 -125 11 -50 6 -542 14 -547 9z m-833 -573 c-6 -4 -28
-14 -50 -21 -106 -36 -339 -151 -455 -225 -189 -121 -330 -228 -449 -340 -82
-78 -211 -211 -247 -256 -16 -19 -35 -41 -42 -49 -29 -30 -162 -210 -218 -296
-249 -377 -404 -702 -518 -1091 -15 -50 -28 -99 -30 -110 -3 -10 -14 -62 -26
-114 -25 -110 -25 -112 -40 -205 -20 -125 -33 -235 -45 -395 -6 -75 -6 -450
-1 -529 12 -158 23 -281 31 -320 1 -9 6 -45 10 -81 4 -36 9 -74 11 -85 94
-538 217 -982 389 -1400 31 -77 63 -151 70 -165 7 -14 48 -97 90 -185 75 -155
176 -341 216 -396 10 -15 19 -30 19 -33 0 -27 305 -458 439 -621 265 -324 621
-678 917 -912 124 -98 138 -109 188 -145 28 -21 56 -41 62 -46 14 -13 237
-162 304 -204 219 -139 510 -287 735 -375 205 -80 470 -161 610 -187 11 -2 38
-9 60 -14 22 -6 62 -13 89 -17 27 -3 52 -8 55 -10 3 -1 30 -6 60 -9 29 -3 68
-8 85 -11 123 -19 282 -29 496 -29 154 0 379 9 428 19 9 1 42 6 72 10 30 3 66
8 80 10 14 3 43 7 65 9 22 3 51 8 65 11 14 2 39 7 55 10 17 4 68 15 115 27 47
11 92 21 100 23 286 67 721 268 938 432 26 20 42 30 36 22 -33 -44 -92 -117
-109 -135 -11 -12 -50 -54 -86 -95 -144 -161 -329 -339 -499 -478 -97 -80 -92
-77 -180 -141 -41 -30 -77 -57 -80 -60 -6 -6 -145 -99 -172 -115 -10 -5 -75
-44 -145 -86 -408 -244 -824 -411 -1403 -563 -192 -50 -479 -104 -645 -121
-33 -4 -71 -8 -85 -10 -120 -20 -583 -26 -805 -11 -66 4 -122 9 -125 11 -3 1
-36 6 -73 10 -37 3 -76 8 -85 10 -34 6 -98 16 -127 20 -16 2 -88 16 -160 30
-772 157 -1615 573 -2240 1104 -481 410 -855 885 -1164 1484 -38 72 -88 177
-111 231 -23 54 -46 106 -51 115 -13 23 -94 236 -139 366 -91 263 -186 622
-216 815 -3 19 -9 53 -14 75 -5 22 -12 63 -15 90 -4 28 -8 57 -10 65 -2 8 -7
42 -11 75 -3 33 -8 68 -9 77 -2 9 -7 57 -10 105 -4 48 -9 102 -12 118 -11 73
-10 600 2 740 13 153 22 240 30 285 9 50 14 86 20 134 19 155 113 539 189 769
206 621 524 1214 907 1688 43 53 84 103 91 111 7 7 33 36 57 63 141 160 358
368 526 506 187 152 407 303 629 431 124 71 461 240 506 253 14 4 30 11 35 15
28 21 443 170 570 205 33 9 67 19 75 22 8 3 20 7 25 9 398 105 362 97 350 86z"/>
</g>
</svg>
